<svg id="visual" viewBox="0 0 2000 5500" width="2000" height="5500" xmlns="http://www.w3.org/2000/svg" xmlns:xlink="http://www.w3.org/1999/xlink" version="1.1"><rect x="0" y="0" width="2000" height="5500" fill="#FFFFFF"></rect><defs><linearGradient id="grad1_0" x1="0%" y1="100%" x2="100%" y2="0%"><stop offset="30%" stop-color="#1643a6" stop-opacity="1"></stop><stop offset="70%" stop-color="#1643a6" stop-opacity="1"></stop></linearGradient></defs><defs><linearGradient id="grad1_1" x1="0%" y1="100%" x2="100%" y2="0%"><stop offset="30%" stop-color="#1643a6" stop-opacity="1"></stop><stop offset="70%" stop-color="#4a5bb3" stop-opacity="1"></stop></linearGradient></defs><defs><linearGradient id="grad1_2" x1="0%" y1="100%" x2="100%" y2="0%"><stop offset="30%" stop-color="#6d74c0" stop-opacity="1"></stop><stop offset="70%" stop-color="#4a5bb3" stop-opacity="1"></stop></linearGradient></defs><defs><linearGradient id="grad1_3" x1="0%" y1="100%" x2="100%" y2="0%"><stop offset="30%" stop-color="#6d74c0" stop-opacity="1"></stop><stop offset="70%" stop-color="#8c8ecd" stop-opacity="1"></stop></linearGradient></defs><defs><linearGradient id="grad1_4" x1="0%" y1="100%" x2="100%" y2="0%"><stop offset="30%" stop-color="#a9a9da" stop-opacity="1"></stop><stop offset="70%" stop-color="#8c8ecd" stop-opacity="1"></stop></linearGradient></defs><defs><linearGradient id="grad1_5" x1="0%" y1="100%" x2="100%" y2="0%"><stop offset="30%" stop-color="#a9a9da" stop-opacity="1"></stop><stop offset="70%" stop-color="#c6c5e6" stop-opacity="1"></stop></linearGradient></defs><defs><linearGradient id="grad1_6" x1="0%" y1="100%" x2="100%" y2="0%"><stop offset="30%" stop-color="#e2e2f3" stop-opacity="1"></stop><stop offset="70%" stop-color="#c6c5e6" stop-opacity="1"></stop></linearGradient></defs><defs><linearGradient id="grad1_7" x1="0%" y1="100%" x2="100%" y2="0%"><stop offset="30%" stop-color="#e2e2f3" stop-opacity="1"></stop><stop offset="70%" stop-color="#ffffff" stop-opacity="1"></stop></linearGradient></defs><defs><linearGradient id="grad2_0" x1="0%" y1="100%" x2="100%" y2="0%"><stop offset="30%" stop-color="#1643a6" stop-opacity="1"></stop><stop offset="70%" stop-color="#1643a6" stop-opacity="1"></stop></linearGradient></defs><defs><linearGradient id="grad2_1" x1="0%" y1="100%" x2="100%" y2="0%"><stop offset="30%" stop-color="#4a5bb3" stop-opacity="1"></stop><stop offset="70%" stop-color="#1643a6" stop-opacity="1"></stop></linearGradient></defs><defs><linearGradient id="grad2_2" x1="0%" y1="100%" x2="100%" y2="0%"><stop offset="30%" stop-color="#4a5bb3" stop-opacity="1"></stop><stop offset="70%" stop-color="#6d74c0" stop-opacity="1"></stop></linearGradient></defs><defs><linearGradient id="grad2_3" x1="0%" y1="100%" x2="100%" y2="0%"><stop offset="30%" stop-color="#8c8ecd" stop-opacity="1"></stop><stop offset="70%" stop-color="#6d74c0" stop-opacity="1"></stop></linearGradient></defs><defs><linearGradient id="grad2_4" x1="0%" y1="100%" x2="100%" y2="0%"><stop offset="30%" stop-color="#8c8ecd" stop-opacity="1"></stop><stop offset="70%" stop-color="#a9a9da" stop-opacity="1"></stop></linearGradient></defs><defs><linearGradient id="grad2_5" x1="0%" y1="100%" x2="100%" y2="0%"><stop offset="30%" stop-color="#c6c5e6" stop-opacity="1"></stop><stop offset="70%" stop-color="#a9a9da" stop-opacity="1"></stop></linearGradient></defs><defs><linearGradient id="grad2_6" x1="0%" y1="100%" x2="100%" y2="0%"><stop offset="30%" stop-color="#c6c5e6" stop-opacity="1"></stop><stop offset="70%" stop-color="#e2e2f3" stop-opacity="1"></stop></linearGradient></defs><defs><linearGradient id="grad2_7" x1="0%" y1="100%" x2="100%" y2="0%"><stop offset="30%" stop-color="#ffffff" stop-opacity="1"></stop><stop offset="70%" stop-color="#e2e2f3" stop-opacity="1"></stop></linearGradient></defs><g transform="translate(2000, 5500)"><path d="M-1100 0C-1084.1 -146.8 -1068.3 -293.7 -1009.8 -418.3C-951.3 -542.9 -850.2 -645.2 -748.8 -748.8C-647.4 -852.5 -545.8 -957.5 -421 -1016.3C-296.1 -1075 -148.1 -1087.5 0 -1100L0 0Z" fill="#f1f0f9"></path><path d="M-962.5 0C-948.6 -128.5 -934.7 -257 -883.6 -366C-832.4 -475 -743.9 -564.5 -655.2 -655.2C-566.5 -745.9 -477.6 -837.8 -368.3 -889.2C-259.1 -940.6 -129.5 -951.6 0 -962.5L0 0Z" fill="#d4d3ec"></path><path d="M-825 0C-813.1 -110.1 -801.2 -220.3 -757.4 -313.7C-713.5 -407.1 -637.7 -483.9 -561.6 -561.6C-485.6 -639.4 -409.4 -718.1 -315.7 -762.2C-222.1 -806.3 -111 -815.6 0 -825L0 0Z" fill="#b8b7e0"></path><path d="M-687.5 0C-677.6 -91.8 -667.7 -183.6 -631.1 -261.4C-594.6 -339.3 -531.4 -403.2 -468 -468C-404.7 -532.8 -341.1 -598.4 -263.1 -635.2C-185.1 -671.9 -92.5 -679.7 0 -687.5L0 0Z" fill="#9a9bd3"></path><path d="M-550 0C-542.1 -73.4 -534.1 -146.8 -504.9 -209.1C-475.7 -271.4 -425.1 -322.6 -374.4 -374.4C-323.7 -426.2 -272.9 -478.8 -210.5 -508.1C-148.1 -537.5 -74 -543.8 0 -550L0 0Z" fill="#7d80c6"></path><path d="M-412.5 0C-406.6 -55.1 -400.6 -110.1 -378.7 -156.9C-356.7 -203.6 -318.8 -241.9 -280.8 -280.8C-242.8 -319.7 -204.7 -359.1 -157.9 -381.1C-111 -403.1 -55.5 -407.8 0 -412.5L0 0Z" fill="#5c67ba"></path><path d="M-275 0C-271 -36.7 -267.1 -73.4 -252.5 -104.6C-237.8 -135.7 -212.6 -161.3 -187.2 -187.2C-161.9 -213.1 -136.5 -239.4 -105.2 -254.1C-74 -268.8 -37 -271.9 0 -275L0 0Z" fill="#354fad"></path><path d="M-137.5 0C-135.5 -18.4 -133.5 -36.7 -126.2 -52.3C-118.9 -67.9 -106.3 -80.6 -93.6 -93.6C-80.9 -106.6 -68.2 -119.7 -52.6 -127C-37 -134.4 -18.5 -135.9 0 -137.5L0 0Z" fill="#1643a6"></path></g><g transform="translate(0, 0)"><path d="M1100 0C1079.2 144.2 1058.3 288.4 1002.4 415.2C946.5 542 855.4 651.5 755.9 755.9C656.4 860.3 548.3 959.8 421 1016.3C293.6 1072.8 146.8 1086.4 0 1100L0 0Z" fill="#f1f0f9"></path><path d="M962.5 0C944.3 126.2 926.1 252.3 877.1 363.3C828.2 474.3 748.5 570 661.4 661.4C574.3 752.8 479.8 839.8 368.3 889.2C256.9 938.7 128.4 950.6 0 962.5L0 0Z" fill="#d4d3ec"></path><path d="M825 0C809.4 108.1 793.8 216.3 751.8 311.4C709.9 406.5 641.6 488.6 566.9 566.9C492.3 645.2 411.3 719.8 315.7 762.2C220.2 804.6 110.1 814.8 0 825L0 0Z" fill="#b8b7e0"></path><path d="M687.5 0C674.5 90.1 661.5 180.2 626.5 259.5C591.5 338.8 534.6 407.2 472.4 472.4C410.2 537.7 342.7 599.8 263.1 635.2C183.5 670.5 91.7 679 0 687.5L0 0Z" fill="#9a9bd3"></path><path d="M550 0C539.6 72.1 529.2 144.2 501.2 207.6C473.2 271 427.7 325.7 377.9 377.9C328.2 430.2 274.2 479.9 210.5 508.1C146.8 536.4 73.4 543.2 0 550L0 0Z" fill="#7d80c6"></path><path d="M412.5 0C404.7 54.1 396.9 108.1 375.9 155.7C354.9 203.3 320.8 244.3 283.5 283.5C246.1 322.6 205.6 359.9 157.9 381.1C110.1 402.3 55 407.4 0 412.5L0 0Z" fill="#5c67ba"></path><path d="M275 0C269.8 36 264.6 72.1 250.6 103.8C236.6 135.5 213.9 162.9 189 189C164.1 215.1 137.1 239.9 105.2 254.1C73.4 268.2 36.7 271.6 0 275L0 0Z" fill="#354fad"></path><path d="M137.5 0C134.9 18 132.3 36 125.3 51.9C118.3 67.8 106.9 81.4 94.5 94.5C82 107.5 68.5 120 52.6 127C36.7 134.1 18.3 135.8 0 137.5L0 0Z" fill="#1643a6"></path></g></svg>