<svg id="visual" viewBox="0 0 1600 4500" width="1600" height="4500" xmlns="http://www.w3.org/2000/svg" xmlns:xlink="http://www.w3.org/1999/xlink" version="1.1"><rect x="0" y="0" width="1600" height="4500" fill="#EBEEF4"></rect><defs><linearGradient id="grad1_0" x1="0%" y1="100%" x2="100%" y2="0%"><stop offset="30%" stop-color="#1643a6" stop-opacity="1"></stop><stop offset="70%" stop-color="#1643a6" stop-opacity="1"></stop></linearGradient></defs><defs><linearGradient id="grad1_1" x1="0%" y1="100%" x2="100%" y2="0%"><stop offset="30%" stop-color="#1643a6" stop-opacity="1"></stop><stop offset="70%" stop-color="#3c5ab3" stop-opacity="1"></stop></linearGradient></defs><defs><linearGradient id="grad1_2" x1="0%" y1="100%" x2="100%" y2="0%"><stop offset="30%" stop-color="#5972bf" stop-opacity="1"></stop><stop offset="70%" stop-color="#3c5ab3" stop-opacity="1"></stop></linearGradient></defs><defs><linearGradient id="grad1_3" x1="0%" y1="100%" x2="100%" y2="0%"><stop offset="30%" stop-color="#5972bf" stop-opacity="1"></stop><stop offset="70%" stop-color="#748bcb" stop-opacity="1"></stop></linearGradient></defs><defs><linearGradient id="grad1_4" x1="0%" y1="100%" x2="100%" y2="0%"><stop offset="30%" stop-color="#90a3d6" stop-opacity="1"></stop><stop offset="70%" stop-color="#748bcb" stop-opacity="1"></stop></linearGradient></defs><defs><linearGradient id="grad1_5" x1="0%" y1="100%" x2="100%" y2="0%"><stop offset="30%" stop-color="#90a3d6" stop-opacity="1"></stop><stop offset="70%" stop-color="#adbce0" stop-opacity="1"></stop></linearGradient></defs><defs><linearGradient id="grad1_6" x1="0%" y1="100%" x2="100%" y2="0%"><stop offset="30%" stop-color="#cbd5ea" stop-opacity="1"></stop><stop offset="70%" stop-color="#adbce0" stop-opacity="1"></stop></linearGradient></defs><defs><linearGradient id="grad1_7" x1="0%" y1="100%" x2="100%" y2="0%"><stop offset="30%" stop-color="#cbd5ea" stop-opacity="1"></stop><stop offset="70%" stop-color="#ebeef4" stop-opacity="1"></stop></linearGradient></defs><defs><linearGradient id="grad2_0" x1="0%" y1="100%" x2="100%" y2="0%"><stop offset="30%" stop-color="#1643a6" stop-opacity="1"></stop><stop offset="70%" stop-color="#1643a6" stop-opacity="1"></stop></linearGradient></defs><defs><linearGradient id="grad2_1" x1="0%" y1="100%" x2="100%" y2="0%"><stop offset="30%" stop-color="#3c5ab3" stop-opacity="1"></stop><stop offset="70%" stop-color="#1643a6" stop-opacity="1"></stop></linearGradient></defs><defs><linearGradient id="grad2_2" x1="0%" y1="100%" x2="100%" y2="0%"><stop offset="30%" stop-color="#3c5ab3" stop-opacity="1"></stop><stop offset="70%" stop-color="#5972bf" stop-opacity="1"></stop></linearGradient></defs><defs><linearGradient id="grad2_3" x1="0%" y1="100%" x2="100%" y2="0%"><stop offset="30%" stop-color="#748bcb" stop-opacity="1"></stop><stop offset="70%" stop-color="#5972bf" stop-opacity="1"></stop></linearGradient></defs><defs><linearGradient id="grad2_4" x1="0%" y1="100%" x2="100%" y2="0%"><stop offset="30%" stop-color="#748bcb" stop-opacity="1"></stop><stop offset="70%" stop-color="#90a3d6" stop-opacity="1"></stop></linearGradient></defs><defs><linearGradient id="grad2_5" x1="0%" y1="100%" x2="100%" y2="0%"><stop offset="30%" stop-color="#adbce0" stop-opacity="1"></stop><stop offset="70%" stop-color="#90a3d6" stop-opacity="1"></stop></linearGradient></defs><defs><linearGradient id="grad2_6" x1="0%" y1="100%" x2="100%" y2="0%"><stop offset="30%" stop-color="#adbce0" stop-opacity="1"></stop><stop offset="70%" stop-color="#cbd5ea" stop-opacity="1"></stop></linearGradient></defs><defs><linearGradient id="grad2_7" x1="0%" y1="100%" x2="100%" y2="0%"><stop offset="30%" stop-color="#ebeef4" stop-opacity="1"></stop><stop offset="70%" stop-color="#cbd5ea" stop-opacity="1"></stop></linearGradient></defs><g transform="translate(1600, 4500)"><path d="M-880 0C-852.2 -152.3 -824.5 -304.5 -750.8 -433.5C-677.2 -562.5 -557.8 -668.1 -425 -736.1C-292.2 -804.2 -146.1 -834.6 0 -865L0 0Z" fill="#dbe1ef"></path><path d="M-770 0C-745.7 -133.2 -721.4 -266.5 -657 -379.3C-592.6 -492.1 -488.1 -584.6 -371.9 -644.1C-255.7 -703.6 -127.8 -730.3 0 -756.9L0 0Z" fill="#bcc8e5"></path><path d="M-660 0C-639.2 -114.2 -618.3 -228.4 -563.1 -325.1C-507.9 -421.8 -418.3 -501.1 -318.8 -552.1C-219.2 -603.1 -109.6 -625.9 0 -648.7L0 0Z" fill="#9eafdb"></path><path d="M-550 0C-532.6 -95.2 -515.3 -190.3 -469.3 -270.9C-423.3 -351.5 -348.6 -417.6 -265.6 -460.1C-182.6 -502.6 -91.3 -521.6 0 -540.6L0 0Z" fill="#8297d1"></path><path d="M-440 0C-426.1 -76.1 -412.2 -152.3 -375.4 -216.8C-338.6 -281.2 -278.9 -334 -212.5 -368.1C-146.1 -402.1 -73.1 -417.3 0 -432.5L0 0Z" fill="#677ec5"></path><path d="M-330 0C-319.6 -57.1 -309.2 -114.2 -281.6 -162.6C-254 -210.9 -209.2 -250.5 -159.4 -276C-109.6 -301.6 -54.8 -313 0 -324.4L0 0Z" fill="#4b66b9"></path><path d="M-220 0C-213.1 -38.1 -206.1 -76.1 -187.7 -108.4C-169.3 -140.6 -139.4 -167 -106.3 -184C-73.1 -201 -36.5 -208.6 0 -216.2L0 0Z" fill="#2c4fad"></path><path d="M-110 0C-106.5 -19 -103.1 -38.1 -93.9 -54.2C-84.7 -70.3 -69.7 -83.5 -53.1 -92C-36.5 -100.5 -18.3 -104.3 0 -108.1L0 0Z" fill="#1643a6"></path></g><g transform="translate(0, 0)"><path d="M880 0C839.8 145.6 799.7 291.1 726.6 419.5C653.5 547.9 547.6 659.1 421 729.2C294.4 799.3 147.2 828.1 0 857L0 0Z" fill="#dbe1ef"></path><path d="M770 0C734.9 127.4 699.7 254.7 635.8 367.1C571.8 479.4 479.1 576.7 368.4 638C257.6 699.3 128.8 724.6 0 749.9L0 0Z" fill="#bcc8e5"></path><path d="M660 0C629.9 109.2 599.7 218.3 544.9 314.6C490.2 410.9 410.7 494.4 315.8 546.9C220.8 599.4 110.4 621.1 0 642.8L0 0Z" fill="#9eafdb"></path><path d="M550 0C524.9 91 499.8 181.9 454.1 262.2C408.5 342.4 342.2 412 263.1 455.7C184 499.5 92 517.6 0 535.6L0 0Z" fill="#8297d1"></path><path d="M440 0C419.9 72.8 399.8 145.6 363.3 209.7C326.8 273.9 273.8 329.6 210.5 364.6C147.2 399.6 73.6 414.1 0 428.5L0 0Z" fill="#677ec5"></path><path d="M330 0C314.9 54.6 299.9 109.2 272.5 157.3C245.1 205.5 205.3 247.2 157.9 273.4C110.4 299.7 55.2 310.5 0 321.4L0 0Z" fill="#4b66b9"></path><path d="M220 0C210 36.4 199.9 72.8 181.6 104.9C163.4 137 136.9 164.8 105.3 182.3C73.6 199.8 36.8 207 0 214.3L0 0Z" fill="#2c4fad"></path><path d="M110 0C105 18.2 100 36.4 90.8 52.4C81.7 68.5 68.4 82.4 52.6 91.1C36.8 99.9 18.4 103.5 0 107.1L0 0Z" fill="#1643a6"></path></g></svg>