<?xml version="1.0" encoding="utf-8"?>
<!-- Generator: Adobe Illustrator 23.0.3, SVG Export Plug-In . SVG Version: 6.00 Build 0)  -->
<svg version="1.1" id="Layer_1" xmlns="http://www.w3.org/2000/svg" xmlns:xlink="http://www.w3.org/1999/xlink" x="0px" y="0px"
	 viewBox="0 0 48 48" style="enable-background:new 0 0 48 48;" xml:space="preserve">
<style type="text/css">
	.st0{fill:#D03827;}
	.st1{fill:#ED2224;}
	.st2{fill:#010101;}
</style>
<g>
	<path class="st0" d="M34.7,41.7c4.9-2.5,9.4-11,8.9-18.3c-0.2-2.9-1-5.7-2.3-8.3s-3-4.4-5.3-6.1c-1-0.8-1.9-1.7-3.1-2.3l-8.2-0.4
		l-3.3,3.3C22,9.2,22.7,9,23.3,8.9c2.6-0.4,5.2,1.3,6.8,3.2c2.4,2.8,3.6,6.5,3.9,10.1c0.1,1.1,0.1,2.2,0,3.3
		c-0.5,3.7-2.1,8.3-5,10.7c-0.9,0.7-2,1.3-3,1.9c-0.9,0.5-2,0.9-3,0.7c-0.8-0.1-1.7-0.4-2.6-0.8l4.8,4.2L34.7,41.7z"/>
</g>
<g>
	<path class="st1" d="M32.9,6.6c-1.5-0.4-2.6-0.7-4.2-0.7C23.8,6,20,10.1,17.9,14.2c-2.6,5.3-3.1,11.5-1.2,17
		c1.6,4.6,4.5,9.1,9.5,10.3c0.2,0,0.4,0.1,0.6,0.1c1.4,0.3,2.8,0.3,4.2,0.3c0.8,0,2.9,0.3,3.6-0.3c-0.3,0.3-0.8,0.4-1.2,0.5
		c-4.2,1.6-9,1.9-13.3,0.9c-5.3-1.3-10-3.4-12.8-8.3C4.7,30.4,3.6,25,4.3,20c0.3-2,0.8-4,1.8-5.8C8,10.8,10.4,8.4,14,6.9
		c2.8-1.2,5.9-1.8,8.9-2.2c1.8-0.2,3.5-0.1,5.3,0.3C29.9,5.2,32.9,6.6,32.9,6.6z"/>
</g>
<path class="st2" d="M44.1,23.4c-0.2-2.8-1-5.7-2.3-8.5C40.9,13,39.5,11.4,38,10c-1.6-1.5-3.3-3-5.2-3.9c-1-0.5-2.1-0.9-3.2-1.3
	c-0.4-0.1-0.9-0.3-1.3-0.4c-1.9-0.4-3.7-0.5-5.5-0.3c-3.7,0.5-6.6,1.2-9.1,2.3c-3.5,1.6-6.1,4-8.1,7.6c-0.9,1.7-1.6,3.7-1.9,6
	c-0.6,5.1,0.5,10.6,3.1,15s6.6,7,13.1,8.6c1.7,0.4,3.5,0.6,5.3,0.6c2.5,0,5-0.4,7.4-1.2c0.8-0.2,1.5-0.5,2.2-0.9
	C40.1,39.6,44.5,30.6,44.1,23.4z M20.2,42.6c-6.2-1.5-10.1-4-12.5-8.1C5.2,30.2,4.1,25,4.8,20.1c0.3-2.1,0.9-4,1.8-5.6
	c1.9-3.4,4.3-5.7,7.6-7.1c2.4-1,5.2-1.7,8.8-2.2C23.5,5,24.1,5,24.6,5c1.1,0,2.2,0.1,3.4,0.4c0.1,0,0.3,0.1,0.4,0.1
	c-6.4,0.3-10,6.6-11,8.5c-2.7,5.4-3.1,11.8-1.2,17.4c0.9,2.8,2.2,5.1,3.8,6.8l0.1,0.1c1.7,1.9,3.7,3.1,6,3.7
	c0.2,0.1,0.4,0.1,0.6,0.1c1.2,0.2,2.6,0.3,4.2,0.3C27.5,43.4,23.7,43.5,20.2,42.6z M23.3,9.4c2.5-0.4,5,1.4,6.4,3
	c2.1,2.5,3.4,5.9,3.8,9.8c0.1,1.3,0.1,2.3,0,3.2c-0.5,3.5-2,8-4.8,10.3c-0.8,0.7-2,1.3-3,1.8s-1.9,0.7-2.6,0.6
	c-0.6-0.1-1.4-0.3-2.3-0.7c-1.9-2.1-3-4.7-3.6-6.5c-1.8-5.4-1.4-11.5,1.2-16.7c0.4-0.8,0.8-1.5,1.3-2.2s1.1-1.5,1.7-2.1
	C22.2,9.6,22.9,9.5,23.3,9.4z M34.4,41.3c-0.7,0.4-1.8,0.3-2.6,0.2c-0.3,0-0.6,0-0.8,0c-1.6,0-2.9-0.1-4.1-0.3
	c-0.2,0-0.4-0.1-0.6-0.1c-1.5-0.3-2.7-1-3.8-1.8c0.1,0,0.3,0.1,0.4,0.1c0.2,0,0.3,0,0.5,0c0.8,0,1.7-0.3,2.7-0.8s2.2-1.2,3.1-1.9
	c3.1-2.5,4.7-7.3,5.2-11c0.1-1,0.1-2.1,0-3.4c-0.4-4.1-1.8-7.7-4-10.4c-1.5-1.8-4.3-3.8-7.2-3.4c1.6-1.2,3.4-1.9,5.4-2
	c1.4,0,2.9,0.2,4.1,0.7c0.6,0.3,1.1,0.7,1.6,1.1c0.4,0.3,0.8,0.7,1.2,1c2.5,2,4,3.7,5.1,6c1.3,2.7,2.1,5.5,2.2,8.1
	c0.3,5.6-2,11.5-5.8,15.6C36.4,40,35.5,40.6,34.4,41.3z"/>
</svg>