<?xml version="1.0" encoding="iso-8859-1"?>
<!-- Generator: Adobe Illustrator 25.2.3, SVG Export Plug-In . SVG Version: 6.00 Build 0)  -->
<svg version="1.1" xmlns="http://www.w3.org/2000/svg" xmlns:xlink="http://www.w3.org/1999/xlink" x="0px" y="0px"
	 viewBox="0 0 48 48" style="enable-background:new 0 0 48 48;" xml:space="preserve">
<g id="Layer_1">
</g>
<g id="doodle">
	<g>
		<path style="fill:#74CCCF;" d="M27.571,26.821c0.921-1.308,1.73-3.151,1.009-4.58c-0.721-1.429-2.213-2.35-3.768-2.728
			c-1.752-0.426-3.739-0.196-5.129,0.954c-1.612,1.334-2.124,3.717-1.533,5.724s2.136,3.636,3.944,4.688
			c1.808,1.052,3.871,1.584,5.93,1.955c2.359,0.425,4.792,0.652,7.146,0.205c2.541-0.483,4.872-1.728,7.051-3.121
			c0.052,0.947-0.37,1.852-0.818,2.688c-1.174,2.192-2.602,4.247-4.246,6.113c-0.806,0.914-1.671,1.79-2.685,2.465
			c-1.111,0.74-2.371,1.223-3.633,1.657c-2.744,0.943-5.588,1.483-8.489,1.56c-2.901,0.077-5.88-0.35-8.281-1.979
			c-1.497-1.016-2.721-2.376-3.929-3.723c-0.889-0.991-1.783-1.99-2.463-3.134c-1-1.683-1.495-3.609-1.974-5.507
			c-1.027-4.071-2.037-8.355-0.972-12.416c0.29-1.106,0.729-2.167,1.219-3.2c0.64-1.349,1.369-2.655,2.182-3.907
			C8.913,9.33,9.787,8.16,10.917,7.273c1.764-1.384,4.007-1.972,6.185-2.502c1.838-0.447,3.686-0.878,5.569-1.057
			c4.809-0.456,9.784,0.817,13.713,3.628s6.757,7.153,7.62,11.906c0.291,1.605,0.356,3.307-0.246,4.823
			c-0.618,1.554-1.894,2.778-3.338,3.622c-1.444,0.844-3.059,1.345-4.669,1.8c-1.6,0.452-3.275,0.868-4.91,0.564
			C29.206,29.753,27.747,28.474,27.571,26.821z"/>
	</g>
	<g>
		<path style="fill:#4B7BB2;" d="M4.335,20.216c1.375-4.952,7.761-7.011,11.057-7.416c11.182-1.371,13.326,7.803,13.455,10.629
			c-3.371-6.728-9.164-2.963-9.164-2.963c-3.58,3.258-5.687,9.584-4.312,14.225s5.553,8.624,10.33,9.409
			c0,0-9.898,2.216-14.937-4.711S4.61,28.855,4.335,20.216z"/>
	</g>
	<g>
		<path style="fill:#1E4384;" d="M25.699,44.1c-4.777-0.784-8.955-4.767-10.33-9.409s0.733-10.967,4.312-14.225
			c0,0-4.664,3.691,1.131,9.531s19.067,2.414,21.407-0.08C42.22,29.917,38.681,43.167,25.699,44.1z"/>
	</g>
	<path style="fill:#010101;" d="M44.031,17.213c-1.29-4.333-4.153-8.159-7.913-10.661c-4.086-2.719-9.172-3.866-14.034-3.274
		c-2.605,0.317-5.269,0.919-7.765,1.735C11.96,5.784,10.06,7.05,8.561,9.041c-3.102,4.121-5.153,9.094-4.943,14.301
		c0.158,3.914,1.282,7.816,3.01,11.321c0.811,1.644,1.937,3.027,3.157,4.388c1.655,1.846,3.375,3.696,5.688,4.708
		c2.227,0.974,4.702,1.219,7.111,1.134c2.696-0.095,5.378-0.584,7.941-1.421c1.242-0.406,2.493-0.858,3.631-1.507
		c1.073-0.613,2.006-1.436,2.847-2.335c1.768-1.888,3.299-4.02,4.559-6.276c0.598-1.071,1.179-2.178,1.157-3.436
		c-0.006-0.366-0.424-0.64-0.752-0.432c-2.807,1.785-5.786,3.223-9.174,3.293c-1.707,0.035-3.407-0.187-5.079-0.509
		c-1.567-0.302-3.138-0.703-4.579-1.403c-2.487-1.206-4.778-3.515-4.723-6.456c0.024-1.288,0.508-2.607,1.488-3.475
		c1.07-0.947,2.565-1.235,3.954-1.089c1.516,0.159,3.135,0.88,4.014,2.171c1.017,1.492,0.183,3.226-0.729,4.55
		c-0.108,0.157-0.101,0.308-0.039,0.434c0.317,2.131,2.289,3.455,4.326,3.633c1.348,0.118,2.705-0.182,3.998-0.532
		c1.275-0.346,2.547-0.723,3.763-1.241c2.087-0.889,4.071-2.33,4.978-4.479C45.119,22.123,44.71,19.492,44.031,17.213z
		 M42.427,25.361c-1.455,1.805-3.663,2.707-5.822,3.362c-2.144,0.65-4.909,1.616-6.997,0.327c-0.794-0.49-1.315-1.241-1.5-2.139
		c0.832-1.25,1.557-2.852,1.123-4.362c-0.418-1.457-1.771-2.541-3.111-3.119c-2.82-1.217-6.593-0.65-8.064,2.31
		c-1.436,2.889-0.29,6.181,1.988,8.257c2.734,2.49,6.669,3.292,10.236,3.667c2.19,0.23,4.407,0.137,6.521-0.518
		c1.696-0.526,3.277-1.344,4.794-2.26c-0.227,0.873-0.729,1.686-1.176,2.455c-0.606,1.042-1.271,2.05-1.989,3.018
		c-1.389,1.873-2.982,3.793-5.071,4.904c-2.16,1.148-4.673,1.819-7.07,2.243c-2.35,0.415-4.83,0.578-7.201,0.232
		c-2.353-0.344-4.429-1.278-6.19-2.883c-0.857-0.781-1.633-1.646-2.406-2.509c-0.786-0.876-1.577-1.754-2.21-2.75
		c-1.529-2.403-2.492-5.289-3.103-8.049c-0.471-2.132-0.685-4.324-0.527-6.505c0.178-2.467,0.936-4.78,2.038-6.982
		c1.05-2.097,2.281-4.325,4.01-5.942c1.684-1.574,3.941-2.223,6.126-2.764c2.401-0.595,4.828-1.17,7.313-1.225
		c2.269-0.05,4.535,0.283,6.694,0.981c4.131,1.335,7.728,4.053,10.079,7.71c1.142,1.776,1.983,3.735,2.453,5.795
		C43.888,20.907,43.982,23.432,42.427,25.361z"/>
	<path style="fill:#010101;" d="M4.817,20.349c0.749-2.585,2.917-4.334,5.259-5.462c2.193-1.056,4.635-1.655,7.067-1.719
		c2.409-0.064,4.835,0.438,6.824,1.851c1.484,1.054,2.589,2.563,3.327,4.212c0.586,1.309,0.982,2.773,1.052,4.198
		c0.031,0.641,1.032,0.644,1,0c-0.162-3.3-1.719-6.749-4.303-8.84c-4.107-3.324-10.101-2.874-14.713-0.909
		c-2.876,1.225-5.574,3.284-6.477,6.403C3.673,20.702,4.638,20.966,4.817,20.349L4.817,20.349z"/>
	<path style="fill:#010101;" d="M19.329,20.113c-2.95,2.727-4.684,6.871-4.868,10.856c-0.189,4.08,1.782,7.973,4.86,10.595
		c1.787,1.522,3.924,2.617,6.246,3.018c0.629,0.109,0.9-0.855,0.266-0.964c-3.863-0.668-7.183-3.312-9.02-6.735
		c-1.828-3.406-1.649-7.279-0.266-10.815c0.77-1.969,1.933-3.809,3.49-5.248C20.509,20.382,19.801,19.676,19.329,20.113
		L19.329,20.113z"/>
</g>
<g id="cclip">
</g>
<g id="fluent">
</g>
<g id="color">
</g>
<g id="m_rounded">
</g>
<g id="cloud">
</g>
<g id="bubble">
</g>
</svg>